<?xml version="1.0" encoding="utf-8"?>
<!-- Generator: Adobe Illustrator 16.0.3, SVG Export Plug-In . SVG Version: 6.00 Build 0)  -->
<!DOCTYPE svg PUBLIC "-//W3C//DTD SVG 1.1//EN" "http://www.w3.org/Graphics/SVG/1.1/DTD/svg11.dtd">
<svg version="1.1" id="alpha" xmlns="http://www.w3.org/2000/svg" xmlns:xlink="http://www.w3.org/1999/xlink" x="0px" y="0px"
	 width="1024px" height="1024px" viewBox="0 0 1024 1024" enable-background="new 0 0 1024 1024" xml:space="preserve">
<path fill="#1D1D1B" d="M1019.817,713.021c-30.718,46.076-65.61,69.1-104.679,69.1c-39.128,0-77.479-20.221-115.176-60.719
	c-15.389-16.762-28.272-35.252-38.77-55.502c-10.438-20.219-18.49-40.826-24.038-61.762L977.946,93.182H791.553L672.201,401.014
	C655.44,181.845,560.484,72.246,387.393,72.246c-125.6,0-223.359,53.741-293.145,161.224C31.44,327.023,0.008,438.71,0.008,568.529
	c0,100.533,29.346,187.795,87.978,261.756c64.179,81,145.178,121.469,242.878,121.469c87.963,0,164.011-29.316,228.249-87.947
	c50.282-47.449,99.132-117.264,146.61-209.418c12.585,44.705,23.381,82.043,32.447,112.045
	c9.065,30.033,17.834,53.385,26.185,70.145c34.893,76.793,78.136,115.176,129.849,115.176c43.243,0,76.049-23.023,98.416-69.1
	c20.936-37.695,31.373-79.568,31.373-125.645c0-8.379-0.357-16.402-1.014-24.096
	C1022.263,725.248,1021.189,718.629,1019.817,713.021z M521.417,713.021C437.674,834.49,363.653,895.209,299.489,895.209
	c-106.11,0-159.165-90.721-159.165-272.223c0-94.926,22.308-186.364,67.012-274.341c53.025-107.481,122.812-161.223,209.402-161.223
	c65.61,0,120.067,30.718,163.311,92.123c33.521,51.683,50.281,113.804,50.281,186.394
	C630.33,520.365,594.006,602.766,521.417,713.021z"/>
</svg>
