<?xml version="1.0" encoding="utf-8"?>
<!-- Generator: Adobe Illustrator 16.0.3, SVG Export Plug-In . SVG Version: 6.00 Build 0)  -->
<!DOCTYPE svg PUBLIC "-//W3C//DTD SVG 1.1//EN" "http://www.w3.org/Graphics/SVG/1.1/DTD/svg11.dtd">
<svg version="1.1" id="Layer_1" xmlns="http://www.w3.org/2000/svg" xmlns:xlink="http://www.w3.org/1999/xlink" x="0px" y="0px"
	 width="1024px" height="1024px" viewBox="0 0 1024 1024" enable-background="new 0 0 1024 1024" xml:space="preserve">
<path fill="#1D1D1B" d="M313.055,1024c41.565,0,62.366-8.722,62.366-26.183s-1.688-39.718-4.992-66.735
	c-3.339-27.035-7.922-59.24-13.713-96.666c-14.974-77.322-22.878-133.454-23.695-168.376
	c56.521,77.322,119.723,115.992,189.566,115.992c68.174,0,124.731-22.86,169.637-68.601
	c44.904-46.557,67.356-103.931,67.356-172.123c0-45.722-11.03-87.714-33.057-125.975c-22.044-38.227-52.596-66.505-91.675-84.818
	c48.209-33.234,72.349-88.549,72.349-165.871c0-51.548-20.392-93.131-61.122-124.731C610.318,13.305,565.413,0,511.36,0
	C353.377,0,274.402,94.783,274.402,284.367c0,20.801,0.391,46.148,1.243,76.097c0.817,29.931,2.061,65.688,3.73,107.253
	c0.817,40.748,1.883,76.31,3.127,106.648c1.243,30.357,1.864,55.51,1.864,75.457c0,17.462-0.213,34.514-0.621,51.14
	c-0.427,16.645-1.048,32.436-1.883,47.392c-0.817,9.166-2.061,23.074-3.73,41.779c-1.67,18.722-4.156,42.204-7.479,70.483
	c-4.174,47.392-6.234,84.374-6.234,111.001C264.42,1006.539,280.619,1024,313.055,1024z M533.813,29.931
	c31.6,0,57.161,10.195,76.718,30.552c19.521,20.393,29.309,47.214,29.309,80.449c0,27.443-10.817,57.818-32.417,91.053
	c-23.305,36.609-48.244,54.888-74.854,54.888c-3.321,0-7.691-0.195-13.091-0.622c-5.418-0.408-11.031-1.03-16.84-1.883
	c-5.826-0.817-11.439-1.438-16.839-1.865c-5.418-0.408-9.787-0.621-13.092-0.621c-25.791,0-38.67,17.887-38.67,53.626
	c0,13.322,4.565,25.17,13.731,35.562c9.13,10.392,19.947,15.578,32.435,15.578c46.539,0,89.366-12.878,128.462-38.67
	c44.053,39.913,66.097,95.228,66.097,165.889c0,51.565-17.053,98.975-51.14,142.192c-36.592,44.904-80.662,67.357-132.21,67.357
	c-58.21,0-111.428-32.436-159.636-97.288v-57.374C329.272,209.532,396.612,29.931,533.813,29.931z"/>
</svg>
