<?xml version="1.0" encoding="utf-8"?>
<!-- Generator: Adobe Illustrator 16.0.3, SVG Export Plug-In . SVG Version: 6.00 Build 0)  -->
<!DOCTYPE svg PUBLIC "-//W3C//DTD SVG 1.1//EN" "http://www.w3.org/Graphics/SVG/1.1/DTD/svg11.dtd">
<svg version="1.1" id="Layer_1" xmlns="http://www.w3.org/2000/svg" xmlns:xlink="http://www.w3.org/1999/xlink" x="0px" y="0px"
	 width="1024px" height="1024px" viewBox="0 0 1024 1024" enable-background="new 0 0 1024 1024" xml:space="preserve">
<path fill="#1D1D1B" d="M816.227,847.809c-24.386,0-43.799,8.854-58.193,26.611c-14.395,17.709-27.7,26.563-39.869,26.563
	c-33.287,0-69.321-55.969-108.102-167.904c-13.258-38.78-24.906-75.903-34.896-111.368c-9.944-35.466-18.277-69.795-24.907-103.082
	c59.804-110.8,111.368-207.773,154.6-290.921c43.184-83.101,79.785-152.942,109.711-209.431H679.904
	c-47.682,106.396-110.847,235.521-189.496,387.326C421.655,135.186,339.124,0,242.671,0c-33.24,0-59.804,9.706-79.785,29.073
	c-19.935,19.413-29.926,45.692-29.926,78.98c0,15.53,5.256,29.925,15.815,43.184c10.512,13.305,23.533,19.981,39.063,19.981
	c3.314,0,7.197-1.941,11.648-5.824c4.403-3.883,9.376-8.05,14.963-12.453c5.492-4.451,11.885-8.618,19.082-12.5
	c7.197-3.883,15.815-5.824,25.806-5.824c43.184,0,86.415,42.142,129.646,126.378c13.306,27.7,26.611,56.773,39.917,87.267
	c13.258,30.494,25.475,63.45,36.555,98.915c-70.932,136.322-131.919,250.437-182.868,342.438
	c-50.996,92.002-92.522,164.021-124.673,216.107h136.321c50.949-96.405,95.601-180.358,133.813-251.857
	c38.259-71.451,70.078-131.019,95.601-178.7c12.169,69.842,23.249,126.899,33.24,171.219c9.99,44.32,18.277,76.472,24.953,96.453
	C621.711,963.58,678.247,1024,751.403,1024c31.015,0,61.509-10.512,91.435-31.583c32.104-21.071,48.202-45.456,48.202-73.109
	c0-17.756-8.05-34.092-24.102-49.055C850.84,855.29,833.936,847.809,816.227,847.809z"/>
</svg>
