<?xml version="1.0" encoding="utf-8"?>
<!-- Generator: Adobe Illustrator 16.0.3, SVG Export Plug-In . SVG Version: 6.00 Build 0)  -->
<!DOCTYPE svg PUBLIC "-//W3C//DTD SVG 1.1//EN" "http://www.w3.org/Graphics/SVG/1.1/DTD/svg11.dtd">
<svg version="1.1" id="Layer_1" xmlns="http://www.w3.org/2000/svg" xmlns:xlink="http://www.w3.org/1999/xlink" x="0px" y="0px"
	 width="1024px" height="1024px" viewBox="0 0 1024 1024" enable-background="new 0 0 1024 1024" xml:space="preserve">
<path fill="#1D1D1B" d="M486.123,1024c96.931,0,181.439-31.742,253.573-95.297c72.134-63.509,108.247-143.739,108.247-240.646
	S802.17,498.544,710.622,410.263c-44.164-40.921-129.731-103.371-256.794-187.374c-91.501-57.045-137.275-101.186-137.275-132.422
	c0-8.626,5.383-16.699,16.147-24.244c10.765-7.521,20.978-11.294,30.685-11.294c71.076,0,207.293,80.76,408.652,242.256
	c18.264-6.463,35.515-19.091,51.662-37.953c16.147-18.815,24.244-36.872,24.244-54.101c0-38.758-61.921-83.428-185.764-134.055
	C548.044,23.715,466.756,0,418.313,0c-42.002,0-76.458,8.648-103.371,25.854c-31.236,22.61-46.832,52.767-46.832,90.443
	c0,42.002,46.28,99.069,138.886,171.203c32.295,24.773,64.866,49.547,97.713,74.297c32.847,24.772,65.417,49.017,97.712,72.686
	c-40.943-19.391-83.451-29.074-127.568-29.074c-90.444,0-162.624,30.155-216.448,90.443
	c-54.929,58.149-82.348,131.916-82.348,221.278c0,89.386,29.075,163.683,87.178,222.89C321.383,996.007,395.68,1024,486.123,1024z
	 M361.774,541.074c39.84-63.508,94.216-95.297,163.13-95.297c121.681,0,182.497,77.011,182.497,230.963
	c0,66.774-19.919,132.444-59.759,197.058c-45.222,74.296-99.046,111.444-161.52,111.444c-57.045,0-102.313-29.604-135.665-88.834
	c-29.075-48.465-43.612-102.818-43.612-163.13C306.846,661.145,325.155,597.084,361.774,541.074z"/>
</svg>
