<?xml version="1.0" encoding="utf-8"?>
<!-- Generator: Adobe Illustrator 16.0.3, SVG Export Plug-In . SVG Version: 6.00 Build 0)  -->
<!DOCTYPE svg PUBLIC "-//W3C//DTD SVG 1.1//EN" "http://www.w3.org/Graphics/SVG/1.1/DTD/svg11.dtd">
<svg version="1.1" id="Layer_1" xmlns="http://www.w3.org/2000/svg" xmlns:xlink="http://www.w3.org/1999/xlink" x="0px" y="0px"
	 width="1024px" height="1024px" viewBox="0 0 1024 1024" enable-background="new 0 0 1024 1024" xml:space="preserve">
<path fill="#1D1D1B" d="M87.207,715.818c0,106.783,42.09,186.057,126.203,237.789C287.777,1000.57,379.214,1024,487.585,1024
	c100.285,0,196.562-25.088,288.759-75.23c111.621-58.229,165.047-131.836,160.139-220.82l-2.418-14.549
	C812.769,795.889,667.974,837.15,499.75,837.15c-72.777,0-139.957-12.926-201.398-38.809
	c-80.934-30.721-121.365-76.82-121.365-138.332c0-32.346,17.002-62.238,51.006-89.781c32.346-27.473,67.109-41.26,104.293-41.26
	c-1.588,0,17.832,7.291,58.264,21.84c42.021,12.994,77.617,19.42,106.783,19.42c93.787,0,140.716-30.721,140.716-92.197
	c0-50.143-38.014-75.232-114.039-75.232c-24.259,0-57.433,7.293-99.525,21.842c-42.09,12.959-72.777,19.42-92.199,19.42
	c-32.344,0-61.512-12.924-87.359-38.842c-25.85-25.85-38.773-53.357-38.773-82.488c0-93.789,97.797-140.752,293.598-140.752
	c43.681,0,103.464,12.131,179.56,36.424c74.367,22.67,119.705,33.969,135.879,33.969c16.172,0,34.764-18.592,55.775-55.809
	c16.172-32.346,24.258-58.264,24.258-77.65c0-38.842-57.434-70.393-172.232-94.652C632.38,8.121,555.524,0,492.423,0
	C388.89,0,304.779,19.422,240.087,58.229c-82.523,46.965-123.715,119.742-123.715,218.402c0,93.822,42.781,161.764,128.553,203.818
	C139.802,533.84,87.207,612.32,87.207,715.818z"/>
</svg>
