<?xml version="1.0" encoding="utf-8"?>
<!-- Generator: Adobe Illustrator 16.0.3, SVG Export Plug-In . SVG Version: 6.00 Build 0)  -->
<!DOCTYPE svg PUBLIC "-//W3C//DTD SVG 1.1//EN" "http://www.w3.org/Graphics/SVG/1.1/DTD/svg11.dtd">
<svg version="1.1" id="Layer_1" xmlns="http://www.w3.org/2000/svg" xmlns:xlink="http://www.w3.org/1999/xlink" x="0px" y="0px"
	 width="1024px" height="1024px" viewBox="0 0 1024 1024" enable-background="new 0 0 1024 1024" xml:space="preserve">
<path fill="#1D1D1B" d="M833.057,488.641c4.416-52.254,8.313-97.263,11.637-135.075c3.373-37.789,5.035-69.474,5.035-95.078
	C849.729,86.17,790.209,0,671.26,0c-72.299,0-128.971,31.138-170.096,93.391c-15.581,21.139-30.307,47.266-44.201,78.38
	c-13.919,31.139-26.436,68.381-37.527,111.751C406.11,94.507,353.809,0,262.651,0c-27.789,0-49.451,8.906-65.032,26.673
	c-15.581,17.79-23.348,40.021-23.348,66.718c0,14.465,3.872,30.592,11.687,48.358c7.767,18.93,19.429,28.359,35.033,28.359
	c7.743,0,16.911-4.181,27.504-12.518c10.546-8.336,22.517-12.517,35.865-12.517c67.787,0,101.728,62.847,101.728,188.469
	c0,40.021-9.477,96.739-28.359,170.108c-7.79,28.929-16.127,57.835-25.01,86.74c-8.931,28.93-17.244,57.265-25.034,85.055h115.1
	c6.65-35.58,13.586-71.136,20.854-106.739c7.197-35.58,14.702-71.16,22.493-106.74c23.348-105.623,50.59-187.352,81.717-245.163
	c42.23-77.81,91.158-116.738,146.785-116.738c62.229,0,93.391,44.463,93.391,133.412c0,75.625-17.814,186.235-53.395,331.88
	s-53.346,255.187-53.346,328.556c0,86.74,30.021,130.087,90.066,130.087c16.674,0,33.584-4.156,50.828-12.493
	c17.244-8.361,25.889-19.762,25.889-34.202c0-12.256-1.424-28.93-4.18-50.021c-2.803-21.139-6.414-45.603-10.83-73.392
	c-10.023-54.486-15.012-98.403-15.012-131.75c0-25.604,1.377-57.812,4.133-96.74C824.98,586.496,828.59,540.917,833.057,488.641z"/>
</svg>
