<?xml version="1.0" encoding="utf-8"?>
<!-- Generator: Adobe Illustrator 16.0.3, SVG Export Plug-In . SVG Version: 6.00 Build 0)  -->
<!DOCTYPE svg PUBLIC "-//W3C//DTD SVG 1.1//EN" "http://www.w3.org/Graphics/SVG/1.1/DTD/svg11.dtd">
<svg version="1.1" id="Layer_1" xmlns="http://www.w3.org/2000/svg" xmlns:xlink="http://www.w3.org/1999/xlink" x="0px" y="0px"
	 width="1024px" height="1024px" viewBox="0 0 1024 1024" enable-background="new 0 0 1024 1024" xml:space="preserve">
<path fill="#1D1D1B" d="M229.856,146.624c80.243,0,147.829,65.965,202.828,197.872c43.961,106.639,65.941,208.886,65.941,306.719
	c0,39.569-7.702,93.417-23.061,161.59c-7.727,35.179-13.479,65.966-17.331,92.338c-3.852,26.396-5.777,47.813-5.777,64.321
	c0,36.259,22.521,54.411,67.609,54.411c52.768,0,79.163-22.544,79.163-67.609c0-16.485-1.409-36.846-4.133-61.01
	c-2.771-24.188-7.984-53.331-15.664-87.406c-6.599-32.971-11.295-61.832-14.02-86.561c-2.771-24.728-4.133-45.347-4.133-61.832
	c0-147.312,37.386-273.724,112.157-379.259c34.051-49.48,67.586-83.531,100.557-102.247c18.692-9.887,37.949-19.492,57.723-28.838
	c19.797-9.347,39.593-18.975,59.366-28.861l8.243-24.752c0-63.734-22.005-95.625-65.966-95.625
	c-79.14,0-149.496,70.896-211.07,212.714c-50.56,115.422-78.6,221.521-84.07,318.249c-23.108-139.609-47.837-243.478-74.208-311.65
	C413.428,81.785,345.818,13.073,261.184,13.073c-40.696,0-73.668,10.708-98.936,32.148c-25.315,21.44-37.927,51.405-37.927,89.871
	c0,13.175,1.645,25.832,4.955,37.927C161.144,155.43,194.655,146.624,229.856,146.624z"/>
</svg>
