<?xml version="1.0" encoding="utf-8"?>
<!-- Generator: Adobe Illustrator 16.0.3, SVG Export Plug-In . SVG Version: 6.00 Build 0)  -->
<!DOCTYPE svg PUBLIC "-//W3C//DTD SVG 1.1//EN" "http://www.w3.org/Graphics/SVG/1.1/DTD/svg11.dtd">
<svg version="1.1" id="Layer_1" xmlns="http://www.w3.org/2000/svg" xmlns:xlink="http://www.w3.org/1999/xlink" x="0px" y="0px"
	 width="1024px" height="1024px" viewBox="0 0 1024 1024" enable-background="new 0 0 1024 1024" xml:space="preserve">
<path fill="#1D1D1B" d="M304.145,1001.354c59.302-120.77,108.881-227,148.83-318.694c39.856-91.647,70.589-169.288,92.201-232.944
	c6.451,32.369,12.672,65.522,18.615,99.504c5.898,33.959,12.117,68.218,18.568,102.707c11.889,53.956,24.008,101.393,36.402,142.355
	c12.395,41.009,25.619,76.604,39.625,106.784C696.125,983.037,738.746,1024,786.207,1024c9.721,0,18.846-2.695,27.508-8.086
	c8.615-5.415,16.172-12.142,22.623-20.229c6.498-8.087,11.611-17.232,15.391-27.485c3.777-10.252,5.668-19.675,5.668-28.314
	c0-7.533-11.889-21.564-35.619-42.068c-17.232-14.008-32.346-26.933-45.293-38.82c-12.947-11.842-23.73-22.646-32.348-32.347
	c-16.172-17.232-29.904-35.595-41.238-55.016c-11.336-19.398-20.781-39.351-28.291-59.854l-71.189-276.626
	c-36.678-131.551-76.582-230.778-119.709-297.659C425.466,45.847,353.724,0,268.527,0c-18.339,0-37.737,3.778-58.241,11.313
	c-24.79,9.722-37.185,24.282-37.185,43.681c0,30.204,5.667,50.155,16.956,59.854c11.335,9.723,32.116,14.561,62.297,14.561
	c83.031,0,135.882,4.861,158.552,14.561c52.805,18.362,79.254,64.716,79.254,139.131c0,52.851-107.867,292.269-323.556,718.254
	H304.145z"/>
</svg>
