<?xml version="1.0" encoding="utf-8"?>
<!-- Generator: Adobe Illustrator 16.0.3, SVG Export Plug-In . SVG Version: 6.00 Build 0)  -->
<!DOCTYPE svg PUBLIC "-//W3C//DTD SVG 1.1//EN" "http://www.w3.org/Graphics/SVG/1.1/DTD/svg11.dtd">
<svg version="1.1" id="Layer_1" xmlns="http://www.w3.org/2000/svg" xmlns:xlink="http://www.w3.org/1999/xlink" x="0px" y="0px"
	 width="1024px" height="1024px" viewBox="0 0 1024 1024" enable-background="new 0 0 1024 1024" xml:space="preserve">
<path fill="#1D1D1B" d="M532.737,46.318C532.737,15.451,492.077,0,410.827,0c-56.91,0-91.043,13.818-102.396,41.424
	c-4.861,13.055-7.326,53.645-7.326,121.91c0,22.777,0.381,51.215,1.215,85.348s2.014,73.994,3.682,119.48
	c1.596,45.52,2.43,86.146,2.43,121.875c0,35.799,0,65.834,0,90.209c0,149.584,5.695,245.453,17.084,287.711
	C356.349,971.984,425.446,1024,532.737,1024c52.031,0,96.686-19.516,134.115-58.508c37.361-39.029,56.043-82.918,56.043-131.668
	c0-27.639-6.527-56.875-19.514-87.779c-12.986-30.832-30.904-47.916-53.611-51.18C591.228,816.74,527.876,877.713,459.612,877.713
	c-50.416,0-75.625-26.84-75.625-80.451c0-81.25,25.209-206.426,75.625-375.488C508.362,252.744,532.737,127.604,532.737,46.318z"/>
</svg>
