<?xml version="1.0" encoding="utf-8"?>
<!-- Generator: Adobe Illustrator 16.0.3, SVG Export Plug-In . SVG Version: 6.00 Build 0)  -->
<!DOCTYPE svg PUBLIC "-//W3C//DTD SVG 1.1//EN" "http://www.w3.org/Graphics/SVG/1.1/DTD/svg11.dtd">
<svg version="1.1" id="Layer_1" xmlns="http://www.w3.org/2000/svg" xmlns:xlink="http://www.w3.org/1999/xlink" x="0px" y="0px"
	 width="1024px" height="1024px" viewBox="0 0 1024 1024" enable-background="new 0 0 1024 1024" xml:space="preserve">
<path fill="#1D1D1B" d="M154.529,606.388c-7.804,87.977-11.705,154.231-11.705,198.791c0,63.472,3.901,109.125,11.705,136.983
	c15.605,54.551,47.342,81.838,95.208,81.838c51.244,0,76.842-18.937,76.842-56.787c0-18.937-10.563-46.771-31.735-83.527
	c-15.606-25.622-28.12-47.89-37.589-66.803c-9.469-18.96-16.415-34.543-20.888-46.795c-22.268-52.338-33.401-106.89-33.401-163.7
	c0-13.37,0.571-26.978,1.665-40.919c1.095-13.917,2.808-29.238,5.044-45.938c17.795,51.244,46.2,93.543,85.169,126.944
	c42.346,36.756,89.117,55.146,140.313,55.146c82.409,0,154.256-54.004,215.492-162.059c4.472,43.44,16.129,79.102,35.114,106.913
	c23.361,36.756,54.003,55.146,91.877,55.146c33.401,0,59.523-18.39,78.508-55.146c16.7-30.071,25.027-63.473,25.027-100.229
	c0-12.228-1.095-23.933-3.331-35.066c-32.307,49.008-71.275,73.487-116.904,73.487c-40.11,0-68.516-31.735-85.217-95.208
	c51.196-119.165,76.843-250.011,76.843-392.562c0-36.756-3.331-60.688-10.04-71.846C732.535,8.351,710.22,0,675.724,0
	c-36.731,0-55.146,41.205-55.146,123.614c0,332.99-76.842,499.475-230.526,499.475c-56.764,0-96.303-26.717-118.57-80.173
	c-12.275-32.308-18.366-84.075-18.366-155.374c0-34.496,8.326-88.523,25.027-162.035c16.701-74.582,25.075-128.038,25.075-160.346
	C303.218,21.721,283.187,0,243.076,0c-37.874,0-63.473,12.823-76.843,38.422c-8.945,18.96-13.37,51.243-13.37,96.896
	c0,31.189,2.76,76.296,8.374,135.295c5.52,60.142,8.327,105.248,8.327,135.318c0,22.292-1.095,50.103-3.331,83.527
	C163.997,522.86,160.096,561.853,154.529,606.388z"/>
</svg>
