<?xml version="1.0" encoding="utf-8"?>
<!-- Generator: Adobe Illustrator 16.0.3, SVG Export Plug-In . SVG Version: 6.00 Build 0)  -->
<!DOCTYPE svg PUBLIC "-//W3C//DTD SVG 1.1//EN" "http://www.w3.org/Graphics/SVG/1.1/DTD/svg11.dtd">
<svg version="1.1" id="Layer_1" xmlns="http://www.w3.org/2000/svg" xmlns:xlink="http://www.w3.org/1999/xlink" x="0px" y="0px"
	 width="1024px" height="1024px" viewBox="0 0 1024 1024" enable-background="new 0 0 1024 1024" xml:space="preserve">
<path fill="#1D1D1B" d="M430.733,364.547C370.351,135.516,289.067,20.9,186.919,20.9c-17.029,0-37.93,10.117-62.697,30.225
	c-23.215,18.584-34.82,36.375-34.82,53.371c0,29.432,27.842,81.283,83.596,155.555c38.691,48.016,71.164,92.525,97.52,133.531
	c26.289,41.07,47.189,78.57,62.697,112.631c55.721,117.658,83.564,249.271,83.564,394.707c0,41.797-1.521,82.803-4.629,123.08
	h37.168c134.656-86.639,245.303-187.301,332.01-301.85c102.182-133.133,153.271-268.582,153.271-406.346
	c0-153.24-49.57-258.529-148.609-315.805c12.367,44.908,18.584,92.922,18.584,143.98c0,122.287-29.432,249.998-88.26,383.133
	c-58.828,140.871-135.449,244.574-229.859,311.107C491.116,689.678,472.532,531.742,430.733,364.547z"/>
</svg>
