<?xml version="1.0" encoding="utf-8"?>
<!-- Generator: Adobe Illustrator 16.0.3, SVG Export Plug-In . SVG Version: 6.00 Build 0)  -->
<!DOCTYPE svg PUBLIC "-//W3C//DTD SVG 1.1//EN" "http://www.w3.org/Graphics/SVG/1.1/DTD/svg11.dtd">
<svg version="1.1" id="Layer_1" xmlns="http://www.w3.org/2000/svg" xmlns:xlink="http://www.w3.org/1999/xlink" x="0px" y="0px"
	 width="1024px" height="1024px" viewBox="0 0 1024 1024" enable-background="new 0 0 1024 1024" xml:space="preserve">
<path fill="#1D1D1B" d="M931.048,283.38c-68.125-106.502-136.886-159.807-206.281-159.807c-19.798,0-29.749,10.534-29.749,31.602
	c0,3.706,1.905,7.411,5.61,11.169c4.923,4.923,28.479,31.549,70.614,79.877c28.478,32.236,49.546,60.715,63.202,85.488
	c32.184,61.984,48.275,133.815,48.275,215.598c0,65.69-17.362,126.988-52.033,183.997c-35.942,65.638-85.488,98.457-148.638,98.457
	c-29.749,0-61.351-11.752-94.804-35.307c-34.672-24.773-52.034-51.398-52.034-79.877c0-12.387,8.046-43.988,24.19-94.804
	c16.039-50.764,24.138-89.829,24.138-117.09c0-54.469-26.679-81.782-79.93-81.782c-52.033,0-78.023,40.282-78.023,120.848
	c0,80.512,11.751,138.156,35.307,172.828c1.217,28.479-21.703,54.521-68.761,78.024c-40.918,22.338-76.225,33.453-105.92,33.453
	c-54.575,0-95.439-32.184-122.7-96.604c-24.773-48.328-37.159-102.85-37.159-163.564c0-69.396,17.361-131.328,52.033-185.85
	c17.362-29.749,47.693-67.49,91.099-113.384c34.672-33.401,52.034-58.81,52.034-76.172c0-42.082-21.121-63.202-63.203-63.202
	c-73.102,0-136.304,51.451-189.555,154.248C22.92,369.556,0,453.138,0,532.433c0,94.169,21.067,175.951,63.202,245.294
	c50.764,81.782,120.795,122.7,209.987,122.7c90.411,0,164.147-47.11,221.157-141.279c19.797,42.135,49.546,75.906,89.192,101.314
	c39.647,25.408,82.365,38.06,128.205,38.06c101.58,0,180.292-34.672,236.031-104.067C998.592,731.304,1024,647.669,1024,543.602
	C1024,468.013,992.98,381.308,931.048,283.38z"/>
</svg>
