<?xml version="1.0" encoding="utf-8"?>
<!-- Generator: Adobe Illustrator 16.0.3, SVG Export Plug-In . SVG Version: 6.00 Build 0)  -->
<!DOCTYPE svg PUBLIC "-//W3C//DTD SVG 1.1//EN" "http://www.w3.org/Graphics/SVG/1.1/DTD/svg11.dtd">
<svg version="1.1" id="Layer_1" xmlns="http://www.w3.org/2000/svg" xmlns:xlink="http://www.w3.org/1999/xlink" x="0px" y="0px"
	 width="1024px" height="1024px" viewBox="0 0 1024 1024" enable-background="new 0 0 1024 1024" xml:space="preserve">
<path fill="#1D1D1B" d="M19.228,527.572c0,147.057,45.559,266.178,136.674,357.295C250.194,977.623,370.101,1024,515.587,1024
	c134.283,0,250.979-53.617,350.121-160.717c92.688-102.318,139.064-223.01,139.064-362.143c0-147.057-43.986-266.93-131.893-359.686
	C786.544,47.129,669.063,0,520.368,0C366.89,0,244.628,49.588,153.511,148.695C63.933,247.803,19.228,374.096,19.228,527.572z
	 M292.577,261.396C362.929,131.893,451.655,67.143,558.753,67.143c87.906,0,153.479,42.348,196.645,127.111
	c33.572,67.143,50.34,149.447,50.34,246.984c0,116.73-26.365,227.039-79.094,330.928
	C661.071,904.879,577.128,971.201,474.81,971.201c-87.906,0-155.867-41.596-203.816-124.721
	c-39.957-70.352-59.971-151.838-59.971-244.594C211.022,483.586,238.208,370.135,292.577,261.396z"/>
</svg>
