<svg id="fbfd0d5c-a619-4e80-9f0d-882bc4efb275" data-name="Camada 1" xmlns="http://www.w3.org/2000/svg" viewBox="0 0 199.08 199.08"><defs><style>.b809d38a-7d2c-416c-b502-86f3a83f9ee4{fill:#333b8f;}</style></defs><path id="e4609eea-1127-4097-aac3-3c66fc420e78" data-name="Pag Instataneo" class="b809d38a-7d2c-416c-b502-86f3a83f9ee4" d="M167.44,9.05H122.2a4.52,4.52,0,0,0-4.52,4.52h0V76.84a4.51,4.51,0,0,0,4.49,4.53h63.37a4.53,4.53,0,0,0,4.53-4.5V31.65A22.62,22.62,0,0,0,167.44,9.05Zm0-9a31.66,31.66,0,0,1,31.64,31.64V76.84A13.57,13.57,0,0,1,185.53,90.4H122.2a13.55,13.55,0,0,1-13.57-13.53V13.56A13.57,13.57,0,0,1,122.2,0h45.24ZM77,0A13.56,13.56,0,0,1,90.53,13.55V76.84A13.57,13.57,0,0,1,77,90.41H13.62A13.56,13.56,0,0,1,0,76.91H0V31.65A31.65,31.65,0,0,1,31.67,0H77ZM181,144.62h-36.2v36.15a9.05,9.05,0,0,0,9.05,9H181a9,9,0,0,0,9.05-9h0V153.66A9.06,9.06,0,0,0,181,144.62ZM77,117.51H13.62A4.51,4.51,0,0,0,9.09,122h0v45.2a22.61,22.61,0,0,0,22.62,22.6H77a4.51,4.51,0,0,0,4.53-4.5V122a4.51,4.51,0,0,0-4.5-4.53h0Zm117.63-9a4.52,4.52,0,0,1,0,9H122.2a4.53,4.53,0,0,0-4.53,4.51h0v72.31a4.53,4.53,0,1,1-9,.43h0a3.09,3.09,0,0,1,0-.43V122a13.55,13.55,0,0,1,13.57-13.55h72.4ZM181,135.58a18.09,18.09,0,0,1,18.07,18.08v27.11A18.1,18.1,0,0,1,181,198.85H153.87a18.1,18.1,0,0,1-18.1-18.08h0V140.11a4.53,4.53,0,0,1,4.53-4.53H181ZM77,108.47A13.56,13.56,0,0,1,90.53,122v63.3A13.55,13.55,0,0,1,77,198.87H31.71A31.64,31.64,0,0,1,0,167.28H0V122a13.55,13.55,0,0,1,13.57-13.55H77Zm0-27.11a4.51,4.51,0,0,0,4.52-4.51V13.56A4.51,4.51,0,0,0,77,9H31.71A22.61,22.61,0,0,0,9.09,31.63h0v45.2a4.5,4.5,0,0,0,4.49,4.52H77Z"/></svg>