<?xml version="1.0" encoding="utf-8"?>
<!-- Generator: Adobe Illustrator 16.0.3, SVG Export Plug-In . SVG Version: 6.00 Build 0)  -->
<!DOCTYPE svg PUBLIC "-//W3C//DTD SVG 1.1//EN" "http://www.w3.org/Graphics/SVG/1.1/DTD/svg11.dtd">
<svg version="1.1" id="Layer_1" xmlns="http://www.w3.org/2000/svg" xmlns:xlink="http://www.w3.org/1999/xlink" x="0px" y="0px"
	 width="1024px" height="1024px" viewBox="0 0 1024 1024" enable-background="new 0 0 1024 1024" xml:space="preserve">
<path fill="#1D1D1B" d="M672.045,3.256c-89.268,0-151.346,46.286-186.165,138.81c-27.236,65.358-40.843,161.697-40.843,289.063
	c0,28.329,1.628,68.613,4.885,120.899c1.069,23.957,1.651,44.053,1.651,60.428c0,16.327,0,29.353,0,39.168
	c-37.028,0-70.498-5.443-100.456-16.328c-29.957-10.885-55.798-26.144-77.568-45.728c-21.794-19.584-38.656-43.819-50.635-72.661
	c-11.979-28.841-17.956-61.264-17.956-97.176c0-151.322,56.612-248.778,169.837-292.365c13.072-31.539,19.631-59.311,19.631-83.268
	C394.426,14.7,382.424,0,358.468,0c-75.127,0-140.996,46.285-197.608,138.81c-51.17,82.756-76.755,162.767-76.755,240.079
	c0,191.654,120.295,301.064,360.933,328.277c-1.093,18.515-6.535,58.799-16.327,120.854c-5.467,25.027-9.537,47.355-12.258,66.939
	c-2.722,19.631-4.07,37.028-4.07,52.286c0,51.17,25.562,76.755,76.755,76.755c41.354,0,62.055-26.143,62.055-78.383
	c0-28.329-4.373-69.172-13.071-122.481c-7.629-53.403-12.002-92.571-13.072-117.598c121.947-9.815,219.402-45.169,292.366-106.154
	c81.639-68.613,122.481-161.696,122.481-279.294c0-82.709-23.445-154.579-70.242-215.563
	C818.483,37.028,752.614,3.256,672.045,3.256z M729.216,527.514C679.115,595.012,611.06,637.482,525.048,654.88
	c-1.069-13.071-1.907-29.12-2.419-48.146c-0.581-19.073-0.837-40.564-0.837-64.521c0-3.257,0-9.536,0-18.794
	c0-9.21-0.559-20.933-1.628-35.121c0-14.142,0-27.166,0-39.168s0-22.887,0-32.655c0-231.938,46.797-347.908,140.438-347.908
	c49.007,0,85.477,27.771,109.434,83.313c19.607,42.472,29.399,90.385,29.399,143.694
	C799.435,387.076,776.013,464.389,729.216,527.514z"/>
</svg>
