<?xml version="1.0" encoding="utf-8"?>
<!-- Generator: Adobe Illustrator 16.0.3, SVG Export Plug-In . SVG Version: 6.00 Build 0)  -->
<!DOCTYPE svg PUBLIC "-//W3C//DTD SVG 1.1//EN" "http://www.w3.org/Graphics/SVG/1.1/DTD/svg11.dtd">
<svg version="1.1" id="Layer_1" xmlns="http://www.w3.org/2000/svg" xmlns:xlink="http://www.w3.org/1999/xlink" x="0px" y="0px"
	 width="1024px" height="1024px" viewBox="0 0 1024 1024" enable-background="new 0 0 1024 1024" xml:space="preserve">
<path fill="#1D1D1B" d="M100.984,169.359C52.128,211.615,18.448,269.046,0,341.653l21.776,27.756
	c46.205-46.204,77.91-74.581,95.061-85.188c33.003-19.802,73.961-29.675,122.816-29.675h83.214
	c0,112.211-15.854,215.226-47.559,308.988c-23.751,62.058-55.457,124.735-95.061,188.146
	c-31.706,48.856-47.559,76.612-47.559,83.156c0,14.556,13.201,32.383,39.604,53.482c25.104,19.802,46.204,29.731,63.411,29.731
	c73.904,0,120.108-95.737,138.612-287.212c2.652-44.851,5.98-169.643,9.93-374.318h279.257
	c-10.55,134.664-15.853,225.775-15.853,273.334c0,258.778,66.007,388.196,198.075,388.196c42.256,0,79.265-25.726,110.913-77.233
	c26.402-47.559,39.604-93.086,39.604-136.695c0-9.195-1.298-19.802-3.949-31.705c-33.004,52.861-77.233,79.264-132.689,79.264
	c-91.111,0-136.695-91.788-136.695-275.309c0-67.359,5.303-140.644,15.853-219.852H1024V105.948H279.258
	C209.246,105.948,149.84,127.104,100.984,169.359z"/>
</svg>
