<?xml version="1.0" encoding="utf-8"?>
<!-- Generator: Adobe Illustrator 16.0.3, SVG Export Plug-In . SVG Version: 6.00 Build 0)  -->
<!DOCTYPE svg PUBLIC "-//W3C//DTD SVG 1.1//EN" "http://www.w3.org/Graphics/SVG/1.1/DTD/svg11.dtd">
<svg version="1.1" id="Layer_1" xmlns="http://www.w3.org/2000/svg" xmlns:xlink="http://www.w3.org/1999/xlink" x="0px" y="0px"
	 width="1024px" height="1024px" viewBox="0 0 1024 1024" enable-background="new 0 0 1024 1024" xml:space="preserve">
<path fill="#1D1D1B" d="M727.693,239.263c-13.205,0-19.844,6.639-19.844,19.845c0,17.338,5.791,45.444,17.373,84.286
	c11.545,40.501,17.371,71.079,17.371,91.736c0,75.211-16.137,140.923-48.375,197.103c-38.029,65.323-91.736,104.589-161.156,117.795
	l-1.236-91.736c-1.658-36.37-1.234-79.978,1.236-130.789c2.473-50.848,6.604-110.134,12.395-177.894
	c7.451-71.928,12.818-133.262,16.137-184.108c3.283-50.812,4.943-92.372,4.943-124.575C566.537,13.63,550.436,0,518.197,0
	c-16.561,0-29.978,4.768-40.29,14.266c-10.346,9.498-15.501,22.528-15.501,39.054c0,35.521,3.284,89.264,9.923,161.156
	c6.603,72.739,9.922,127.682,9.922,164.863c0,99.188-0.636,179.589-1.872,241.135c-1.235,61.581-2.683,104.766-4.343,129.554
	c-62.817-2.472-112.393-28.531-148.763-78.106c-30.578-42.16-45.868-95.868-45.868-161.156c0-41.313,10.347-83.862,31.003-127.683
	c20.656-44.632,31.002-73.163,31.002-85.557c0-9.923-8.686-18.149-26.059-24.788c-12.394-4.943-25.212-7.45-38.418-7.45
	c-31.426,0-55.366,26.871-71.892,80.578c-13.241,37.217-19.845,74.822-19.845,112.816c0,95.056,23.94,170.267,71.893,225.633
	c50.423,60.346,123.127,93.784,218.183,100.423c-2.472,16.525-4.556,32.026-6.18,46.469c-1.659,14.477-3.319,29.131-4.979,44.031
	c-2.472,18.997-4.556,35.946-6.18,50.813c-1.659,14.865-2.472,28.53-2.472,40.924c0,20.657,3.284,34.711,9.887,42.126
	c6.604,9.922,20.269,14.9,40.925,14.9c18.184,0,30.579-5.402,37.182-16.137c4.131-7.415,6.215-21.504,6.215-42.125
	c0-14.901-1.447-37.429-4.344-67.584c-2.895-30.155-7.238-68.396-13.029-114.652c92.549-9.11,165.711-40.925,219.418-95.479
	c55.367-54.52,83.086-126.835,83.086-216.947c0-33.05-10.77-77.647-32.238-133.861C781.4,271.925,755.801,239.263,727.693,239.263z"
	/>
</svg>
