<?xml version="1.0" encoding="utf-8"?>
<!-- Generator: Adobe Illustrator 16.0.3, SVG Export Plug-In . SVG Version: 6.00 Build 0)  -->
<!DOCTYPE svg PUBLIC "-//W3C//DTD SVG 1.1//EN" "http://www.w3.org/Graphics/SVG/1.1/DTD/svg11.dtd">
<svg version="1.1" id="Layer_1" xmlns="http://www.w3.org/2000/svg" xmlns:xlink="http://www.w3.org/1999/xlink" x="0px" y="0px"
	 width="1024px" height="1024px" viewBox="0 0 1024 1024" enable-background="new 0 0 1024 1024" xml:space="preserve">
<path fill="#1D1D1B" d="M507.045,704.203c107.134,0,193.266-37.521,258.442-112.655c61.873-70.699,92.833-159.615,92.833-266.796
	c0-94.958-31.526-172.83-94.485-233.618C700.877,30.394,622.438,0,528.565,0C405.952,0,312.033,54.699,246.856,164.051
	c-54.134,91.701-81.177,202.705-81.177,333.059c0,115.959,7.74,217.052,23.221,303.23C214.291,949.431,260.685,1024,328.079,1024
	c19.87,0,38.37-6.089,55.502-18.218c17.132-12.177,25.675-29.262,25.675-51.349c0-11.091-15.999-38.134-48.045-81.224
	c-42.004-49.696-72.351-96.656-91.135-140.831c-32.046-70.651-48.045-149.138-48.045-235.27
	C287.208,635.203,382.165,704.203,507.045,704.203z M364.515,177.313C410.907,88.916,473.3,44.741,551.739,44.741
	c59.654,0,104.396,29.261,134.224,87.83c23.22,45.308,34.83,102.179,34.83,170.659c0,80.657-17.698,156.312-53.048,227.01
	c-45.308,87.265-103.311,130.873-173.962,130.873c-61.874,0-109.966-25.91-144.183-77.872c-28.742-45.261-43.09-99.96-43.09-164.004
	C306.511,331.973,325.861,251.315,364.515,177.313z"/>
</svg>
