<?xml version="1.0" encoding="utf-8"?>
<!-- Generator: Adobe Illustrator 16.0.3, SVG Export Plug-In . SVG Version: 6.00 Build 0)  -->
<!DOCTYPE svg PUBLIC "-//W3C//DTD SVG 1.1//EN" "http://www.w3.org/Graphics/SVG/1.1/DTD/svg11.dtd">
<svg version="1.1" id="Layer_1" xmlns="http://www.w3.org/2000/svg" xmlns:xlink="http://www.w3.org/1999/xlink" x="0px" y="0px"
	 width="1024px" height="1024px" viewBox="0 0 1024 1024" enable-background="new 0 0 1024 1024" xml:space="preserve">
<path fill="#1D1D1B" d="M472.61,974.482c126.021,0,232.556-50.254,319.539-150.828c82.498-94.482,123.777-206.273,123.777-335.307
	c0-64.486-22.498-123.777-67.496-177.75c-44.998-54.037-100.51-90.061-166.533-108.074h312.809
	c19.486-22.498,29.295-49.484,29.295-81.021c0-29.935-7.564-53.973-22.5-71.984H558.119c-154.544,0-283.515,38.268-387.037,114.803
	C57.049,249.83,0,368.352,0,519.885c0,139.48,42.755,250.566,128.265,333.064C215.313,933.971,330.051,974.482,472.61,974.482z
	 M603.117,193.551c41.986,0,75.768,33.781,101.279,101.277c21.023,48.012,31.537,97.561,31.537,148.52
	c0,108.01-29.295,208.582-87.754,301.592c-66.086,108.01-150.058,161.982-252.105,161.982c-74.998,0-134.289-37.436-177.75-112.496
	c-39.037-64.486-58.523-137.303-58.523-218.326C159.801,321.109,307.553,193.551,603.117,193.551z"/>
</svg>
