<?xml version="1.0" encoding="utf-8"?>
<!-- Generator: Adobe Illustrator 16.0.3, SVG Export Plug-In . SVG Version: 6.00 Build 0)  -->
<!DOCTYPE svg PUBLIC "-//W3C//DTD SVG 1.1//EN" "http://www.w3.org/Graphics/SVG/1.1/DTD/svg11.dtd">
<svg version="1.1" id="Layer_1" xmlns="http://www.w3.org/2000/svg" xmlns:xlink="http://www.w3.org/1999/xlink" x="0px" y="0px"
	 width="1024px" height="1024px" viewBox="0 0 1024 1024" enable-background="new 0 0 1024 1024" xml:space="preserve">
<path fill="#1D1D1B" d="M244.732,26.25c-39.945,17.43-79.891,49.514-119.871,96.111C51.586,208.939,13.313,258.951,9.969,272.254
	l27.459,34.932c64.953-63.244,139.01-102.373,222.316-117.383c11.631-3.273,38.699-5.834,81.172-7.471
	c42.471-1.635,101.162-4.125,176.072-7.541c-1.672,13.375-4.98,40.836-9.959,82.453c-5.016,41.617-11.668,97.393-19.99,167.322
	c-11.668,103.297-17.502,185.678-17.502,247.285c0,234.766,83.217,352.148,249.758,352.148c54.92,0,100.736-32.441,137.373-97.393
	c35.002-58.264,52.43-114.893,52.43-169.813c0-8.324,0-16.221,0-23.762c0-7.469-0.854-13.73-2.488-18.709
	c-43.326,66.588-99.883,99.881-169.814,99.881c-49.939,0-90.775-24.117-122.361-72.422c-28.385-44.961-42.471-91.557-42.471-139.861
	c0-103.227,12.449-242.234,37.42-417.1l404.648,9.961V0H399.605C336.291,0,284.715,8.75,244.732,26.25z"/>
</svg>
