<?xml version="1.0" encoding="UTF-8"?><svg id="uuid-9c82fffe-452b-4bb0-a298-a08c84c2b411" xmlns="http://www.w3.org/2000/svg" viewBox="0 0 1021.59 1024"><defs><style>.uuid-193c56b3-db0c-42bd-a2e6-b9c1f3e69225{fill:#333b8f;}</style></defs><path id="uuid-e0ea48d5-8154-4535-9c96-740e1b717b30" class="uuid-193c56b3-db0c-42bd-a2e6-b9c1f3e69225" d="M859.23,46.44h-232.15c-12.81,0-23.19,10.38-23.19,23.19h0V394.31c-.06,12.78,10.26,23.19,23.04,23.25h325.19c12.78,0,23.16-10.31,23.25-23.09V162.41c-.06-64.09-52.04-116-116.13-115.97Zm0-46.18c89.65,.06,162.31,72.72,162.36,162.36v231.69c-.03,38.4-31.13,69.53-69.53,69.58h-324.98c-38.4,.06-69.58-31.03-69.64-69.43h0V69.58C557.47,31.15,588.64,0,627.08,0h232.15V.26ZM395.13,0c38.35,.08,69.4,31.18,69.43,69.53V394.31c0,38.38-31.05,69.52-69.43,69.64H69.89C31.46,464.12,.17,433.1,0,394.67h0V162.41C0,72.72,72.72,0,162.41,0c.03,0,.07,0,.1,0h232.61ZM928.81,742.13h-185.76v185.51c.14,25.55,20.89,46.18,46.44,46.18h139.32c25.51,.14,46.3-20.42,46.44-45.93,0-.09,0-.17,0-.26h0v-139.12c-.06-25.62-20.82-46.36-46.44-46.39Zm-533.68-139.12H69.89c-12.78-.06-23.19,10.26-23.25,23.04h0v231.95c.03,64.08,52,116,116.08,115.97h232.41c12.78,.06,23.19-10.26,23.25-23.04v-324.88c.06-12.78-10.26-23.19-23.04-23.25h-.05l-.15,.21Zm603.63-46.18c12.75,1.2,22.12,12.52,20.91,25.27-1.05,11.09-9.83,19.87-20.91,20.91h-371.68c-12.8,0-23.19,10.35-23.25,23.14h0v371.06c1.95,12.69-6.75,24.56-19.44,26.51-12.69,1.95-24.56-6.75-26.51-19.44-.25-1.61-.32-3.24-.23-4.86h0c-.05-.73-.05-1.47,0-2.21v-371.17c0-38.4,31.13-69.53,69.53-69.53h371.63l-.05,.31Zm-69.94,138.91c51.21,.06,92.7,41.57,92.73,92.78v139.12c-.06,51.2-41.53,92.69-92.73,92.78h-139.22c-51.26,0-92.82-41.52-92.88-92.78h0v-208.65c0-12.84,10.41-23.25,23.25-23.25h208.85Zm-533.68-139.12c38.31,.08,69.35,31.12,69.43,69.43v324.83c.06,38.4-31.03,69.58-69.43,69.64H162.72C73.05,1020.71,.2,948.18,0,858.51v-.1h0v-232.36c0-38.4,31.13-69.53,69.53-69.53H395.13v.1Zm0-139.12c12.78,.03,23.17-10.31,23.19-23.09V69.58c.14-12.78-10.1-23.26-22.89-23.4-.1,0-.21,0-.31,0H162.72c-64.08-.03-116.05,51.89-116.08,115.97,0,.05,0,.1,0,.15h0v231.95c-.06,12.75,10.24,23.14,22.99,23.19H395.13v.05Z"/></svg>