<?xml version="1.0" encoding="utf-8"?>
<!-- Generator: Adobe Illustrator 16.0.3, SVG Export Plug-In . SVG Version: 6.00 Build 0)  -->
<!DOCTYPE svg PUBLIC "-//W3C//DTD SVG 1.1//EN" "http://www.w3.org/Graphics/SVG/1.1/DTD/svg11.dtd">
<svg version="1.1" id="Layer_1" xmlns="http://www.w3.org/2000/svg" xmlns:xlink="http://www.w3.org/1999/xlink" x="0px" y="0px"
	 width="1024px" height="1024px" viewBox="0 0 1024 1024" enable-background="new 0 0 1024 1024" xml:space="preserve">
<path fill="#1D1D1B" d="M516.885,1024c105.092,0,182.036-66.088,230.785-198.31c35.764-91.019,53.657-200.994,53.657-329.952
	c0-114.838-20.069-218.332-60.139-310.438C689.152,61.759,614.384,0,516.885,0C405.265,0,325.08,63.958,276.33,191.805
	c-35.787,92.105-53.657,203.17-53.657,333.192c0,128.958,17.87,235.693,53.657,320.207C326.145,964.417,406.353,1024,516.885,1024z
	 M391.723,190.161C417.718,85.068,458.366,32.5,513.62,32.5c66.088,0,111.597,50.948,136.551,152.8
	c10.81,41.181,19.49,118.657,25.995,232.43l-318.587-3.264C362.996,327.799,374.385,253.031,391.723,190.161z M351.098,466.479
	H679.43v60.139c0,45.509-2.453,90.485-7.314,134.906c-4.907,44.444-12.778,88.333-23.588,131.666
	c-30.348,131.134-74.236,196.666-131.643,196.666c-71.528,0-119.769-50.902-144.676-152.777
	c-14.074-54.166-21.111-132.73-21.111-235.693V466.479z"/>
</svg>
