<?xml version="1.0" encoding="utf-8"?>
<!-- Generator: Adobe Illustrator 16.0.3, SVG Export Plug-In . SVG Version: 6.00 Build 0)  -->
<!DOCTYPE svg PUBLIC "-//W3C//DTD SVG 1.1//EN" "http://www.w3.org/Graphics/SVG/1.1/DTD/svg11.dtd">
<svg version="1.1" id="Layer_1" xmlns="http://www.w3.org/2000/svg" xmlns:xlink="http://www.w3.org/1999/xlink" x="0px" y="0px"
	 width="1024px" height="1024px" viewBox="0 0 1024 1024" enable-background="new 0 0 1024 1024" xml:space="preserve">
<path fill="#1D1D1B" d="M688.688,0c-11.307,0-20.961,7.24-29.027,21.789c12.893,19.375,25.787,38.338,38.75,56.885
	c12.895,18.549,26.615,37.51,41.129,56.885c53.266,91.982,79.881,191.203,79.881,297.734c0,121.078-30.684,235.676-91.98,343.793
	c-71.021,125.836-163.002,188.789-275.979,188.789c-79.088,0-142.834-34.684-191.238-104.117
	c-40.336-61.299-60.539-133.146-60.539-215.404c0-51.645,12.895-129.906,38.75-234.85c25.789-103.221,38.752-182.377,38.752-237.193
	c0-41.992-6.482-77.502-19.375-106.531c-19.377-38.75-46.818-58.125-82.33-58.125c-24.201,0-56.471,8.137-96.807,24.201
	C30.271,53.23,6.067,71.779,6.067,89.568c0,24.203,13.654,45.164,41.131,62.953c29.063,20.961,43.576,53.23,43.576,96.809
	c0,19.375-2.861,43.576-8.48,72.605c-5.688,29.029-13.307,62.953-22.994,101.703c-9.689,40.338-16.963,75.434-21.789,105.289
	c-4.826,29.857-7.24,56.059-7.24,78.674c0,124.32,43.578,225.955,130.697,305.043C248.122,986.836,353.792,1024,478.11,1024
	c143.627,0,268.705-54.057,375.201-162.242c109.736-108.047,164.621-233.195,164.621-375.166
	c0-90.395-32.303-190.443-96.809-300.215C848.483,62.127,771.017,0,688.688,0z"/>
</svg>
