<?xml version="1.0" encoding="utf-8"?>
<!-- Generator: Adobe Illustrator 16.0.3, SVG Export Plug-In . SVG Version: 6.00 Build 0)  -->
<!DOCTYPE svg PUBLIC "-//W3C//DTD SVG 1.1//EN" "http://www.w3.org/Graphics/SVG/1.1/DTD/svg11.dtd">
<svg version="1.1" id="Layer_1" xmlns="http://www.w3.org/2000/svg" xmlns:xlink="http://www.w3.org/1999/xlink" x="0px" y="0px"
	 width="1024px" height="1024px" viewBox="0 0 1024 1024" enable-background="new 0 0 1024 1024" xml:space="preserve">
<path fill="#1D1D1B" d="M625.295,940.723c-10.605,0-25.713-3.28-45.32-9.804c-21.246-5.722-36.736-8.583-46.541-8.583
	c-12.254,0-22.476,4.466-30.639,13.467c-8.164,9.001-12.246,20.026-12.246,33.074c0,36.737,22.467,55.123,67.377,55.123
	c53.064,0,97.582-18.386,133.518-55.123c35.096-36.737,52.68-81.673,52.68-134.738c0-41.621-11.652-75.323-34.922-101.035
	c-23.271-25.713-55.334-38.587-96.152-38.587c-9.803,0-28.607,1.222-56.344,3.664c-13.084,0.837-24.91,1.221-35.525,1.221
	c-10.624,0-19.607,0-26.951,0c-102.083,0-153.106-34.679-153.106-104.106c0-62.03,26.515-111.467,79.614-148.204
	c19.607,5.722,47.344,8.582,83.296,8.582c106.155,0,159.221-20.409,159.221-61.263c0-31.854-26.133-47.762-78.395-47.762
	c-59.598,0-117.582,19.188-173.925,57.564c-25.312-17.932-37.959-43.261-37.959-75.951c0-71.834,29.795-122.457,89.419-151.867
	c22.049-10.606,78.401-25.294,169.042-44.099c60.391-13.886,90.639-35.935,90.639-66.148c0-30.178-23.27-45.319-69.846-45.319
	c-48.982,0-115.549,34.714-199.638,104.106c-45.738,0-68.59-19.154-68.59-57.565c0-4.082,0.384-10.396,1.221-18.979
	c0.803-8.582,1.221-14.479,1.221-17.758C386.442,10.223,371.318,0,341.123,0c-16.345,0-30.004,6.141-41.028,18.386
	c-11.024,12.246-16.537,25.713-16.537,40.436c0,29.376,13.467,53.064,40.418,71.032c25.312,16.327,52.664,24.107,82.074,23.271
	l20.811-1.222c-80.835,57.147-121.253,111.887-121.253,164.114c0,41.656,24.072,79.23,72.253,112.688
	c-65.328,61.263-97.983,122.91-97.983,184.977c0,54.704,20.393,98.384,61.246,131.039c38.377,30.213,86.54,45.32,144.541,45.32
	c3.245,0,9.368-0.419,18.369-1.222c8.983-0.803,20.391-2.023,34.286-3.663c13.049-0.837,24.91-1.64,35.516-2.442
	c10.607-0.837,19.607-1.221,26.969-1.221c69.393,0,104.107,25.712,104.107,77.138c0,22.049-7.572,41.237-22.643,57.6
	C667.125,932.523,648.146,940.723,625.295,940.723z"/>
</svg>
