<?xml version="1.0" encoding="utf-8"?>
<!-- Generator: Adobe Illustrator 16.0.3, SVG Export Plug-In . SVG Version: 6.00 Build 0)  -->
<!DOCTYPE svg PUBLIC "-//W3C//DTD SVG 1.1//EN" "http://www.w3.org/Graphics/SVG/1.1/DTD/svg11.dtd">
<svg version="1.1" id="Layer_1" xmlns="http://www.w3.org/2000/svg" xmlns:xlink="http://www.w3.org/1999/xlink" x="0px" y="0px"
	 width="1024px" height="1024px" viewBox="0 0 1024 1024" enable-background="new 0 0 1024 1024" xml:space="preserve">
<path fill="#1D1D1B" d="M343.992,143.994c25.416,18.054,56.195,27.081,92.304,27.081c27.099,0,50.061-2.875,68.921-8.624
	c-54.127,59.912-98.053,123.083-131.672,189.551c-40.21,78.771-60.333,151.794-60.333,219.067
	c0,75.512,17.038,130.674,51.078,165.537c34.039,34.881,88.833,52.322,164.31,52.322c54.162,0,87.816,2.033,100.928,6.152
	c33.654,9.851,50.481,36.09,50.481,78.771c0,19.685-8.624,35.478-25.872,47.379c-17.213,11.884-36.108,17.844-56.616,17.844
	c-4.908,0-10.447-0.613-16.617-1.841c-6.135-1.227-12.726-2.892-19.666-4.925c-6.977-2.051-13.532-3.909-19.702-5.539
	c-6.17-1.647-11.288-2.454-15.39-2.454c-13.952,0-25.661,3.874-35.057,11.691c-9.465,7.782-14.163,18.247-14.163,31.376
	c0,18.036,6.941,32.006,20.929,41.857c13.918,9.833,29.938,14.759,47.993,14.759c51.673,0,94.337-20.105,127.991-60.298
	c34.46-40.228,51.708-85.766,51.708-136.633c0-65.625-29.974-105.835-89.85-120.611c-27.099-3.261-54.583-6.959-82.453-11.078
	c-27.905-4.084-56.23-7.782-84.941-11.078c-59.07-17.229-88.623-61.541-88.623-132.916c0-100.928,29.553-189.551,88.623-265.852
	c34.46-45.941,89.008-93.109,163.679-141.54c58.264-39.386,87.396-65.644,87.396-78.772c0-12.305-5.329-23.382-15.986-33.233
	c-10.691-9.851-22.155-14.759-34.46-14.759c-26.293,0-55.81,19.685-88.623,59.07c-32.813,40.21-61.139,60.314-84.941,60.314
	c-23.804,0-44.276-5.731-61.524-17.229c-22.997-11.481-34.461-28.309-34.461-50.464c0-4.926,0.632-11.691,1.858-20.315
	c1.227-8.606,1.823-14.146,1.823-16.617C403.063,10.656,387.462,0,356.297,0c-15.601,0-29.132,6.362-40.596,19.07
	c-11.498,12.726-17.248,26.468-17.248,41.227C298.453,95.581,313.633,123.486,343.992,143.994z"/>
</svg>
